<svg width="24" height="22" viewBox="0 0 24 22" fill="none" xmlns="http://www.w3.org/2000/svg">
<path fill-rule="evenodd" clip-rule="evenodd" d="M6.50002 1.375C6.86469 1.375 7.21443 1.51987 7.47229 1.77773C7.73015 2.03559 7.87502 2.38533 7.87502 2.75V5.50001C7.87502 5.86468 7.73015 6.21442 7.47229 6.47228C7.21443 6.73014 6.86469 6.87501 6.50002 6.87501C6.13534 6.87501 5.78561 6.73014 5.52774 6.47228C5.26988 6.21442 5.12502 5.86468 5.12502 5.50001V2.75C5.12502 2.38533 5.26988 2.03559 5.52774 1.77773C5.78561 1.51987 6.13534 1.375 6.50002 1.375V1.375Z" stroke="white" stroke-width="1.375" stroke-linecap="round" stroke-linejoin="round"/>
<path d="M23 4.12502H7.87494" stroke="white" stroke-width="1.375" stroke-linecap="round" stroke-linejoin="round"/>
<path d="M5.12498 4.12502H0.999969" stroke="white" stroke-width="1.375" stroke-linecap="round" stroke-linejoin="round"/>
<path fill-rule="evenodd" clip-rule="evenodd" d="M6.50002 15.125C6.86469 15.125 7.21443 15.2699 7.47229 15.5278C7.73015 15.7856 7.87502 16.1354 7.87502 16.5V19.25C7.87502 19.6147 7.73015 19.9644 7.47229 20.2223C7.21443 20.4802 6.86469 20.625 6.50002 20.625C6.13534 20.625 5.78561 20.4802 5.52774 20.2223C5.26988 19.9644 5.12502 19.6147 5.12502 19.25V16.5C5.12502 16.1354 5.26988 15.7856 5.52774 15.5278C5.78561 15.2699 6.13534 15.125 6.50002 15.125Z" stroke="white" stroke-width="1.375" stroke-linecap="round" stroke-linejoin="round"/>
<path d="M23 17.875H7.87494" stroke="white" stroke-width="1.375" stroke-linecap="round" stroke-linejoin="round"/>
<path d="M5.12498 17.875H0.999969" stroke="white" stroke-width="1.375" stroke-linecap="round" stroke-linejoin="round"/>
<path fill-rule="evenodd" clip-rule="evenodd" d="M17.5001 8.25C17.8647 8.25 18.2145 8.39487 18.4723 8.65273C18.7302 8.91059 18.8751 9.26033 18.8751 9.625V12.375C18.8751 12.7397 18.7302 13.0894 18.4723 13.3473C18.2145 13.6051 17.8647 13.75 17.5001 13.75C17.1354 13.75 16.7857 13.6051 16.5278 13.3473C16.2699 13.0894 16.1251 12.7397 16.1251 12.375V9.625C16.1251 9.26033 16.2699 8.91059 16.5278 8.65273C16.7857 8.39487 17.1354 8.25 17.5001 8.25V8.25Z" stroke="white" stroke-width="1.375" stroke-linecap="round" stroke-linejoin="round"/>
<path d="M16.125 11H0.999969" stroke="white" stroke-width="1.375" stroke-linecap="round" stroke-linejoin="round"/>
<path d="M23 11H18.875" stroke="white" stroke-width="1.375" stroke-linecap="round" stroke-linejoin="round"/>
</svg>
